inDegrees=yes
name=ik_S46_A09_T02
DataType=double
version=3
OpenSimVersion=4.3-2021-08-27-4bc7ad9
endheader
time	pelvis_tilt	pelvis_list	pelvis_rotation	pelvis_tx	pelvis_ty	pelvis_tz	hip_flexion_r	hip_adduction_r	hip_rotation_r	knee_angle_r	knee_angle_r_beta	ankle_angle_r	subtalar_angle_r	mtp_angle_r	hip_flexion_l	hip_adduction_l	hip_rotation_l	knee_angle_l	knee_angle_l_beta	ankle_angle_l	subtalar_angle_l	mtp_angle_l	lumbar_extension	lumbar_bending	lumbar_rotation	arm_flex_r	arm_add_r	arm_rot_r	elbow_flex_r	pro_sup_r	wrist_flex_r	wrist_dev_r	arm_flex_l	arm_add_l	arm_rot_l	elbow_flex_l	pro_sup_l	wrist_flex_l	wrist_dev_l
12.75999999999982	-9.97335386584429	-2.258580838448021	25.72699284408793	0	0.9399999999999999	0	32.90674396868815	-9.878305240874184	-9.146092278806819	39.39769504082125	0.6876194961589727	0	0	0	32.90674396868815	-9.878305240874184	-9.146092278806819	39.39769504082125	0.6876194961589727	0	0	0	-8.624265755559989	-2.144651343639598	4.431927184743193	64.91053244016767	-17.67702491090163	8.966533981638227	73.98621947183437	87.12199901126621	0	0	58.5347558080187	-2.905176645438926	16.00788490662431	53.71644395277647	73.10514179499698	0	0
12.77999999999982	-9.930267115729144	-2.269220534081433	25.73125994153899	0	0.9399999999999999	0	32.91133536055109	-9.878461852127815	-9.146798348430194	39.40180821245697	0.6876912845467156	0	0	0	32.91133536055109	-9.878461852127815	-9.146798348430194	39.40180821245697	0.6876912845467156	0	0	0	-8.588125257304368	-2.182850020195874	4.491088432665061	64.88259045485945	-17.75415520599443	8.453685122121176	73.87107374379977	86.99368715886487	0	0	58.55226681313899	-2.888619080999063	15.9674178084498	53.63094131762163	73.25594817532267	0	0
12.79999999999982	-9.900979824500974	-2.275855953506459	25.71783824385224	0	0.9399999999999999	0	32.91417658844031	-9.878558549795111	-9.147234710098624	39.40435692206405	0.6877357679210363	0	0	0	32.91417658844031	-9.878558549795111	-9.147234710098624	39.40435692206405	0.6877357679210363	0	0	0	-8.562110552908095	-2.213515359589135	4.563024374922812	64.68831929750991	-17.83831671485782	8.132706448340816	73.52121402510329	87.310652257274	0	0	58.60517290389905	-2.820344728805476	16.10337209227737	53.5395947866236	73.21711572103887	0	0
12.81999999999982	-9.862431586425947	-2.299306531470851	25.68112158789927	0	0.9399999999999999	0	32.91793284742226	-9.87868583130841	-9.147810028550385	39.40773851663505	0.6877947878802678	0	0	0	32.91793284742226	-9.87868583130841	-9.147810028550385	39.40773851663505	0.6877947878802678	0	0	0	-8.53554461993421	-2.260578078825016	4.619417300660994	64.3032772294477	-17.81910147475456	7.84486981573586	73.38980394249126	87.61677446491539	0	0	58.64964664806737	-2.85279404485992	16.22365272771796	53.54943318224665	73.28023724074983	0	0
12.83999999999982	-9.827066970501457	-2.317652127895557	25.6108001519059	0	0.9399999999999999	0	32.92144183494502	-9.878804881286714	-9.148347969416029	39.41089203865118	0.6878498272224834	0	0	0	32.92144183494502	-9.878804881286714	-9.148347969416029	39.41089203865118	0.6878498272224834	0	0	0	-8.508547467706723	-2.306659303695668	4.707567994934318	63.74851993078124	-17.88561910575913	7.329480114021412	72.95161650097732	87.81963903536267	0	0	58.69101012232674	-2.87225063763653	16.24916103367092	53.51943079913699	73.28163456255436	0	0
12.85999999999981	-9.792422404606285	-2.333652934434917	25.49289433673749	0	0.9399999999999999	0	32.92543308200063	-9.878940172437856	-9.148959559124165	39.41447993441976	0.6879124478168634	0	0	0	32.92543308200063	-9.878940172437856	-9.148959559124165	39.41447993441976	0.6879124478168634	0	0	0	-8.480364849050593	-2.353707582521719	4.819605459043102	63.13933678311289	-17.86017018947022	6.575176129836426	72.25932695205763	88.29852313665666	0	0	58.70255674607306	-2.876153232684358	16.11679762854169	53.43490253738318	73.37940957587034	0	0
12.87999999999981	-9.756975314125807	-2.354162584925078	25.301325109932	0	0.9399999999999999	0	32.93050295550963	-9.879111952144498	-9.1497363262683	39.41903604120886	0.6879919668814056	0	0	0	32.93050295550963	-9.879111952144498	-9.1497363262683	39.41903604120886	0.6879919668814056	0	0	0	-8.452708435387526	-2.409452616012421	4.960918057973154	62.49307384872104	-17.70336492966893	5.746662561701806	71.17667742619459	89.53300372533646	0	0	58.73131755904349	-2.916764728411925	15.87546914411837	53.43923690802026	73.37702316068876	0	0
12.89999999999981	-9.725292976750476	-2.370706286552328	25.04425537586546	0	0.9399999999999999	0	32.93646008489427	-9.879313690933525	-9.150648901105287	39.42438709534242	0.6880853603944888	0	0	0	32.93646008489427	-9.879313690933525	-9.150648901105287	39.42438709534242	0.6880853603944888	0	0	0	-8.42611952593467	-2.463687725765969	5.121415267769423	61.81563583993673	-17.45326319373273	4.918733048370719	69.90328969637117	91.44800113225668	0	0	58.77113200562302	-2.987639865857039	15.57637929491731	53.40678477021082	73.54200844835178	0	0
12.91999999999981	-9.713388736975853	-2.376483715144963	24.81614986391947	0	0.9399999999999999	0	32.94235166994413	-9.879512766576875	-9.151550290154853	39.42968574849512	0.6881778393379246	0	0	0	32.94235166994413	-9.879512766576875	-9.151550290154853	39.42968574849512	0.6881778393379246	0	0	0	-8.413028021194027	-2.498914422115238	5.286483126419876	61.13392949484231	-17.18545899640539	4.087164835231262	68.5847486399133	93.3118838277795	0	0	58.82722856291071	-3.029266592266727	15.27076840123844	53.37373619326181	73.69518324088676	0	0
12.93999999999981	-9.689942310771556	-2.389795973767667	24.59233895997628	0	0.9399999999999999	0	32.94938826934782	-9.879751488738849	-9.152629926259552	39.43598315323683	0.6882877497849981	0	0	0	32.94938826934782	-9.879751488738849	-9.152629926259552	39.43598315323683	0.6882877497849981	0	0	0	-8.395107618793423	-2.534348104493626	5.375411429930314	60.44743401523358	-16.75250608757122	3.384785685407266	67.18722203964504	94.8783182825097	0	0	58.81687608169536	-3.174535833704167	15.22175415499363	53.43858705317017	73.58918558995617	0	0
12.95999999999981	-9.665011452548107	-2.403390648265556	24.46035354071575	0	0.9399999999999999	0	32.95578984239257	-9.879967257960471	-9.153608141072541	39.44174283919862	0.6883882752689123	0	0	0	32.95578984239257	-9.879967257960471	-9.153608141072541	39.44174283919862	0.6883882752689123	0	0	0	-8.379741193610526	-2.548595510973181	5.342723105258774	59.83097530156281	-16.18412213186714	2.959701564875109	66.57054020396664	95.92944468992427	0	0	58.83900598544212	-3.313358046518442	14.92472597995951	53.44965104841592	73.59886713147576	0	0
12.97999999999981	-9.633723860001304	-2.40627074109239	24.33590368364894	0	0.9399999999999999	0	32.96139123273358	-9.880155328484596	-9.154462127436853	39.44679525639651	0.6884764565841998	0	0	0	32.96139123273358	-9.880155328484596	-9.154462127436853	39.44679525639651	0.6884764565841998	0	0	0	-8.355223844692565	-2.550617762188695	5.2835291596719	59.32040529123351	-15.49060926065561	2.766660595924781	64.84826522099284	97.28387552912642	0	0	58.75488647487488	-3.46260478908608	14.66569445535772	53.50143160379483	73.54821627727995	0	0
